<?xml version="1.0" encoding="UTF-8"?>
<svg id="Layer_1" data-name="Layer 1" xmlns="http://www.w3.org/2000/svg" viewBox="0 0 800 800">
  <defs>
    <style>
      .cls-1 {
        fill: #ff3d00;
      }

      .cls-2 {
        fill: #fff;
        stroke: #fff;
        stroke-miterlimit: 10;
        stroke-width: 10px;
      }
    </style>
  </defs>
  <g>
    <rect class="cls-1" x=".63" y=".63" width="798.74" height="798.74"/>
    <path d="M798.74,1.26v797.49H1.26V1.26h797.49M800,0H0v800h800V0h0Z"/>
  </g>
  <path class="cls-2" d="M424.5,131.89c56.91,0,99.03,2.22,171.45,7.39-8.13,67.99-8.87,284.53-4.43,367.3h-5.17c-3.69-309.65-50.25-365.82-169.24-365.82-135.24,0-231.32,101.25-231.32,218.75,0,164.8,116.77,277.87,238.71,277.87s200.28-62.08,249.79-187.71l3.7,2.22c-34,90.9-98.29,230.58-260.88,230.58s-266.79-113.81-266.79-266.79,108.64-283.79,274.18-283.79Z"/>
</svg>